<?xml version="1.0" encoding="UTF-8"?>
<svg viewBox="0 0 1200 600" xmlns="http://www.w3.org/2000/svg">
  <!-- Definitions -->
  <defs>
    <!-- Main background gradient -->
    <linearGradient id="bgGradient" x1="0%" y1="0%" x2="100%" y2="100%">
      <stop offset="0%" style="stop-color:#000000;stop-opacity:1" />
      <stop offset="100%" style="stop-color:#1a1a1a;stop-opacity:1" />
    </linearGradient>
    
    <!-- Yellow accent gradient -->
    <linearGradient id="yellowGradient" x1="0%" y1="0%" x2="100%" y2="100%">
      <stop offset="0%" style="stop-color:#d4f461;stop-opacity:1" />
      <stop offset="100%" style="stop-color:#b8d655;stop-opacity:1" />
    </linearGradient>
    
    <!-- Glow effect -->
    <filter id="glow" x="-20%" y="-20%" width="140%" height="140%">
      <feGaussianBlur stdDeviation="5" result="blur" />
      <feComposite in="SourceGraphic" in2="blur" operator="over" />
    </filter>
    
    <!-- 3D shadow effect -->
    <filter id="shadow" x="-10%" y="-10%" width="120%" height="120%">
      <feDropShadow dx="8" dy="8" stdDeviation="5" flood-color="#000" flood-opacity="0.5" />
    </filter>
    
    <!-- Dynamic particle pattern -->
    <pattern id="particlePattern" width="200" height="200" patternUnits="userSpaceOnUse">
      <circle cx="10" cy="10" r="1" fill="#d4f461" opacity="0.3" />
      <circle cx="30" cy="40" r="1.5" fill="#d4f461" opacity="0.3" />
      <circle cx="70" cy="30" r="1" fill="#d4f461" opacity="0.3" />
      <circle cx="100" cy="15" r="2" fill="#d4f461" opacity="0.3" />
      <circle cx="140" cy="60" r="1" fill="#d4f461" opacity="0.3" />
      <circle cx="180" cy="80" r="1.5" fill="#d4f461" opacity="0.3" />
      <circle cx="160" cy="120" r="1" fill="#d4f461" opacity="0.3" />
      <circle cx="120" cy="140" r="2" fill="#d4f461" opacity="0.3" />
      <circle cx="60" cy="180" r="1" fill="#d4f461" opacity="0.3" />
      <circle cx="25" cy="150" r="1.5" fill="#d4f461" opacity="0.3" />
    </pattern>
  </defs>
  
  <!-- Main background -->
  <rect width="1200" height="600" fill="url(#bgGradient)" />
  
  <!-- Particle background -->
  <rect width="1200" height="600" fill="url(#particlePattern)" />
  
  <!-- Abstract sports field with perspective -->
  <g transform="translate(600, 350) scale(1, 0.6) rotate(-10)">
    <!-- Field shadow -->
    <rect x="-550" y="-300" width="1100" height="600" rx="20" ry="20" 
          fill="#000000" opacity="0.3" transform="translate(20, 20)" />
    
    <!-- Main field -->
    <rect x="-550" y="-300" width="1100" height="600" rx="20" ry="20" 
          fill="#111111" stroke="#333333" stroke-width="2" filter="url(#shadow)" />
    
    <!-- Center circle (universal sports element) -->
    <circle cx="0" cy="0" r="100" fill="none" stroke="url(#yellowGradient)" stroke-width="5" filter="url(#glow)" />
    
    <!-- Centerline -->
    <line x1="-550" y1="0" x2="550" y2="0" stroke="url(#yellowGradient)" stroke-width="5" filter="url(#glow)" />
    
    <!-- Corner arcs - universal in many sports -->
    <path d="M-550,-300 Q-520,-300 -520,-270" fill="none" stroke="url(#yellowGradient)" stroke-width="5" filter="url(#glow)" />
    <path d="M550,-300 Q520,-300 520,-270" fill="none" stroke="url(#yellowGradient)" stroke-width="5" filter="url(#glow)" />
    <path d="M-550,300 Q-520,300 -520,270" fill="none" stroke="url(#yellowGradient)" stroke-width="5" filter="url(#glow)" />
    <path d="M550,300 Q520,300 520,270" fill="none" stroke="url(#yellowGradient)" stroke-width="5" filter="url(#glow)" />
    
    <!-- Multi-sport field markings (abstract) -->
    <rect x="-450" y="-200" width="900" height="400" rx="5" ry="5" 
          fill="none" stroke="url(#yellowGradient)" stroke-width="5" filter="url(#glow)" />
          
    <!-- Abstract court/field lines that work for multiple sports -->
    <line x1="-225" y1="-200" x2="-225" y2="200" stroke="url(#yellowGradient)" stroke-width="3" filter="url(#glow)" />
    <line x1="225" y1="-200" x2="225" y2="200" stroke="url(#yellowGradient)" stroke-width="3" filter="url(#glow)" />
    <line x1="-450" y1="-100" x2="450" y2="-100" stroke="url(#yellowGradient)" stroke-width="3" filter="url(#glow)" />
    <line x1="-450" y1="100" x2="450" y2="100" stroke="url(#yellowGradient)" stroke-width="3" filter="url(#glow)" />
  </g>
  
  <!-- 3D Sports Equipment -->
  
  <!-- 3D Soccer/Football -->
  <g transform="translate(200, 170)">
    <!-- Ball shadow -->
    <ellipse cx="10" cy="10" rx="45" ry="25" fill="#000000" opacity="0.3" />
    
    <!-- Ball -->
    <circle cx="0" cy="0" r="45" fill="#ffffff" filter="url(#shadow)" />
    
    <!-- Black pentagons -->
    <g>
      <path d="M0,-30 L10,-10 L-10,-10 Z" fill="#000000" />
      <path d="M28,-10 L10,-10 L20,10 Z" fill="#000000" />
      <path d="M-28,-10 L-10,-10 L-20,10 Z" fill="#000000" />
      <path d="M-12,30 L-20,10 L0,10 Z" fill="#000000" />
      <path d="M12,30 L20,10 L0,10 Z" fill="#000000" />
    </g>
    
    <!-- Highlight for 3D effect -->
    <circle cx="-15" cy="-15" r="12" fill="#ffffff" opacity="0.5" />
  </g>
  
  <!-- 3D Basketball -->
  <g transform="translate(350, 450) rotate(-15)">
    <!-- Ball shadow -->
    <ellipse cx="10" cy="10" rx="40" ry="20" fill="#000000" opacity="0.3" />
    
    <!-- Ball -->
    <circle cx="0" cy="0" r="40" fill="#ff7300" filter="url(#shadow)" />
    
    <!-- Lines -->
    <path d="M0,-40 C20,-35 35,-20 40,0 C35,20 20,35 0,40 C-20,35 -35,20 -40,0 C-35,-20 -20,-35 0,-40" 
          fill="none" stroke="#000000" stroke-width="2" />
    <path d="M-40,0 C-30,-5 -15,-8 0,-8 C15,-8 30,-5 40,0 C30,5 15,8 0,8 C-15,8 -30,5 -40,0" 
          fill="none" stroke="#000000" stroke-width="2" />
    
    <!-- Highlight -->
    <circle cx="-15" cy="-15" r="10" fill="#ffffff" opacity="0.3" />
  </g>
  
  <!-- 3D Tennis Ball -->
  <g transform="translate(850, 150) rotate(25)">
    <!-- Ball shadow -->
    <ellipse cx="8" cy="8" rx="35" ry="18" fill="#000000" opacity="0.3" />
    
    <!-- Ball -->
    <circle cx="0" cy="0" r="35" fill="#d4f461" filter="url(#shadow)" />
    
    <!-- Ball seam -->
    <path d="M0,-35 C19,-31 31,-19 35,0 C31,19 19,31 0,35 C-19,31 -31,19 -35,0 C-31,-19 -19,-31 0,-35" 
          fill="none" stroke="#ffffff" stroke-width="3" />
    <path d="M-35,0 C-31,-19 -19,-31 0,-35 C19,-31 31,-19 35,0" 
          fill="none" stroke="#ffffff" stroke-width="3" />
    
    <!-- Highlight -->
    <circle cx="-12" cy="-12" r="10" fill="#ffffff" opacity="0.3" />
  </g>
  
  <!-- 3D American Football -->
  <g transform="translate(950, 400) rotate(-30)">
    <!-- Ball shadow -->
    <ellipse cx="10" cy="10" rx="50" ry="15" fill="#000000" opacity="0.3" />
    
    <!-- Ball -->
    <ellipse cx="0" cy="0" rx="40" ry="22" fill="#964B00" filter="url(#shadow)" />
    
    <!-- Laces -->
    <line x1="-10" y1="-5" x2="10" y2="-5" stroke="#ffffff" stroke-width="1.5" />
    <line x1="-10" y1="0" x2="10" y2="0" stroke="#ffffff" stroke-width="1.5" />
    <line x1="-10" y1="5" x2="10" y2="5" stroke="#ffffff" stroke-width="1.5" />
    
    <!-- Highlight -->
    <ellipse cx="-15" cy="-5" rx="10" ry="5" fill="#ffffff" opacity="0.3" />
  </g>
  
  <!-- 3D Baseball -->
  <g transform="translate(600, 150) rotate(15)">
    <!-- Ball shadow -->
    <ellipse cx="8" cy="8" rx="30" ry="15" fill="#000000" opacity="0.3" />
    
    <!-- Ball -->
    <circle cx="0" cy="0" r="30" fill="#ffffff" filter="url(#shadow)" />
    
    <!-- Stitches -->
    <path d="M-15,26 Q0,15 15,26" fill="none" stroke="#ff0000" stroke-width="2.5" />
    <path d="M-15,-26 Q0,-15 15,-26" fill="none" stroke="#ff0000" stroke-width="2.5" />
    
    <!-- Highlight -->
    <circle cx="-10" cy="-10" r="8" fill="#ffffff" opacity="0.3" />
  </g>
  
  <!-- 3D Hockey Puck -->
  <g transform="translate(150, 350)">
    <!-- Puck shadow -->
    <ellipse cx="8" cy="8" rx="30" ry="10" fill="#000000" opacity="0.3" />
    
    <!-- Puck base -->
    <ellipse cx="0" cy="0" rx="30" ry="10" fill="#000000" filter="url(#shadow)" />
    
    <!-- Puck top detail -->
    <ellipse cx="0" cy="0" rx="25" ry="8" fill="none" stroke="#333333" stroke-width="1" />
    
    <!-- Highlight -->
    <ellipse cx="-10" cy="-3" rx="8" ry="3" fill="#ffffff" opacity="0.2" />
  </g>
  
  <!-- Modern 3D geometric elements with yellow accents -->
  <!-- Floating hexagons -->
  <g transform="translate(700, 500) rotate(15)" opacity="0.6">
    <path d="M0,-40 L35,-20 L35,20 L0,40 L-35,20 L-35,-20 Z" fill="none" stroke="url(#yellowGradient)" 
          stroke-width="3" filter="url(#glow)" />
  </g>
  
  <g transform="translate(100, 100) rotate(30)" opacity="0.6">
    <path d="M0,-30 L26,-15 L26,15 L0,30 L-26,15 L-26,-15 Z" fill="none" stroke="url(#yellowGradient)" 
          stroke-width="3" filter="url(#glow)" />
  </g>
  
  <g transform="translate(1050, 250) rotate(-10)" opacity="0.6">
    <path d="M0,-35 L30,-17.5 L30,17.5 L0,35 L-30,17.5 L-30,-17.5 Z" fill="none" stroke="url(#yellowGradient)" 
          stroke-width="3" filter="url(#glow)" />
  </g>
  
  <!-- Dynamic swoosh elements -->
  <path d="M100,100 Q400,0 700,100 T1100,50" fill="none" stroke="url(#yellowGradient)" 
        stroke-width="4" opacity="0.6" filter="url(#glow)">
    <animate attributeName="d" 
      values="M100,100 Q400,0 700,100 T1100,50;
              M100,120 Q400,20 700,120 T1100,70;
              M100,100 Q400,0 700,100 T1100,50"
      dur="10s" repeatCount="indefinite" />
  </path>
  
  <path d="M50,500 Q300,550 600,500 T1150,550" fill="none" stroke="url(#yellowGradient)" 
        stroke-width="4" opacity="0.6" filter="url(#glow)">
    <animate attributeName="d" 
      values="M50,500 Q300,550 600,500 T1150,550;
              M50,480 Q300,530 600,480 T1150,530;
              M50,500 Q300,550 600,500 T1150,550"
      dur="12s" repeatCount="indefinite" />
  </path>
  
  <!-- Energy pulse circles -->
  <circle cx="600" cy="300" r="20" fill="url(#yellowGradient)" opacity="0.2" filter="url(#glow)">
    <animate attributeName="r" values="20;200;20" dur="8s" repeatCount="indefinite" />
    <animate attributeName="opacity" values="0.2;0.05;0.2" dur="8s" repeatCount="indefinite" />
  </circle>
  
  <circle cx="600" cy="300" r="20" fill="url(#yellowGradient)" opacity="0.2" filter="url(#glow)">
    <animate attributeName="r" values="20;250;20" dur="12s" begin="4s" repeatCount="indefinite" />
    <animate attributeName="opacity" values="0.2;0.02;0.2" dur="12s" begin="4s" repeatCount="indefinite" />
  </circle>
  
  <!-- Modern geometric abstract elements in corners -->
  <g transform="translate(50, 50)">
    <rect x="0" y="0" width="40" height="5" fill="url(#yellowGradient)" />
    <rect x="0" y="0" width="5" height="40" fill="url(#yellowGradient)" />
  </g>
  
  <g transform="translate(1150, 50)">
    <rect x="-40" y="0" width="40" height="5" fill="url(#yellowGradient)" />
    <rect x="-5" y="0" width="5" height="40" fill="url(#yellowGradient)" />
  </g>
  
  <g transform="translate(50, 550)">
    <rect x="0" y="-5" width="40" height="5" fill="url(#yellowGradient)" />
    <rect x="0" y="-40" width="5" height="40" fill="url(#yellowGradient)" />
  </g>
  
  <g transform="translate(1150, 550)">
    <rect x="-40" y="-5" width="40" height="5" fill="url(#yellowGradient)" />
    <rect x="-5" y="-40" width="5" height="40" fill="url(#yellowGradient)" />
  </g>
</svg>